# xmcd CD database file
#
# Track frame offsets:
#	150
#	11233
#	25951
#	38582
#	50121
#	61763
#	76161
#	87222
#	100822
#	113704
#	126160
#	137241
#	150755
#	163896
#	176176
#	190805
#
# Disc length: 2728 seconds
#
# Revision: 0
# Processed by: cddbd v1.5.1PL0 Copyright (c) Steve Scherf et al.
# Submitted via: CDex 1.51
#
DISCID=cb0aa610
DTITLE=Sarah Vaughan - American Voices
DYEAR=2003
DGENRE=Jazz
TTITLE0=I Cried For You
TTITLE1=Summertime
TTITLE2=What A Difference A Day Makes
TTITLE3=I Feel So Smoochie
TTITLE4=Trouble Is A Man
TTITLE5=It's You Or No One
TTITLE6=I'm Gonna Sit Right Down And Write Myself A Letter
TTITLE7=Just Friends
TTITLE8=I Get A Kick Out Of You
TTITLE9=The Man I Love
TTITLE10=I Can't Get Started
TTITLE11=Love Me Or Leave Me
TTITLE12=I Cover The Waterfront
TTITLE13=(I Don't Stand) A Ghost Of A Chance
TTITLE14=It's Magic
TTITLE15=Once In A While
EXTD=YEAR: 2003
EXTT0=
EXTT1=
EXTT2=
EXTT3=
EXTT4=
EXTT5=
EXTT6=
EXTT7=
EXTT8=
EXTT9=
EXTT10=
EXTT11=
EXTT12=
EXTT13=
EXTT14=
EXTT15=
PLAYORDER=
